<svg width="32" height="33" viewBox="0 0 32 33" fill="none" xmlns="http://www.w3.org/2000/svg">
<path d="M10 29.1518C11.1046 29.1518 12 28.2547 12 27.1481C12 26.0415 11.1046 25.1444 10 25.1444C8.89543 25.1444 8 26.0415 8 27.1481C8 28.2547 8.89543 29.1518 10 29.1518Z" fill="black"/>
<path d="M23 29.1518C24.1046 29.1518 25 28.2547 25 27.1481C25 26.0415 24.1046 25.1444 23 25.1444C21.8954 25.1444 21 26.0415 21 27.1481C21 28.2547 21.8954 29.1518 23 29.1518Z" fill="black"/>
<path d="M5.2875 9.11485H27.7125L24.4125 20.6862C24.2948 21.1062 24.0426 21.4758 23.6948 21.7382C23.3471 22.0007 22.9229 22.1415 22.4875 22.1389H10.5125C10.0771 22.1415 9.65293 22.0007 9.30515 21.7382C8.95738 21.4758 8.70524 21.1062 8.5875 20.6862L4.0625 4.83193C4.0027 4.62249 3.8764 4.43828 3.70271 4.30721C3.52903 4.17614 3.31744 4.10536 3.1 4.10559H1" stroke="black" stroke-width="2" stroke-linecap="round" stroke-linejoin="round"/>
</svg>
