<svg width="42" height="30" viewBox="0 0 42 30" fill="none" xmlns="http://www.w3.org/2000/svg">
<path d="M8.04637 1.11003C7.92694 0.991932 7.78198 0.895804 7.61988 0.827216C7.45778 0.758628 7.28178 0.718944 7.10207 0.710463C6.92236 0.701982 6.74252 0.724874 6.57297 0.777811C6.40342 0.830748 6.24753 0.912678 6.11434 1.01885C5.98115 1.12503 5.87332 1.25333 5.79707 1.39634C5.72083 1.53934 5.67771 1.69419 5.67019 1.85192C5.66268 2.00965 5.69093 2.16712 5.75331 2.31521C5.81569 2.46329 5.91095 2.59904 6.03357 2.71459L9.30437 5.87152C3.12997 9.19547 0.474574 14.3193 0.357274 14.552C0.279946 14.7045 0.23999 14.8696 0.23999 15.0366C0.23999 15.2036 0.279946 15.3687 0.357274 15.5213C0.416774 15.6391 1.85667 18.4396 5.05777 21.2476C9.32307 24.9876 14.7104 26.9649 20.64 26.9649C23.6874 26.9802 26.7041 26.4298 29.4919 25.3499L33.2319 28.9602C33.3513 29.0783 33.4963 29.1744 33.6584 29.243C33.8205 29.3116 33.9965 29.3513 34.1762 29.3598C34.3559 29.3682 34.5357 29.3454 34.7053 29.2924C34.8748 29.2395 35.0307 29.1576 35.1639 29.0514C35.2971 28.9452 35.4049 28.8169 35.4812 28.6739C35.5574 28.5309 35.6005 28.376 35.6081 28.2183C35.6156 28.0606 35.5873 27.9031 35.5249 27.755C35.4626 27.6069 35.3673 27.4712 35.2447 27.3556L8.04637 1.11003ZM16.0925 12.4195L23.1764 19.2568C22.1096 19.7491 20.8867 19.9166 19.6996 19.7331C18.5125 19.5497 17.4285 19.0255 16.6178 18.2431C15.8071 17.4606 15.3156 16.4641 15.2206 15.41C15.1255 14.356 15.4322 13.3041 16.0925 12.4195ZM20.64 24.579C15.4074 24.579 10.8361 22.9103 7.05187 19.6206C5.49861 18.2666 4.17755 16.722 3.12997 15.0351C3.92727 13.7243 6.47217 10.0559 11.1795 7.67143L14.2395 10.6166C13.0548 11.9475 12.4447 13.603 12.5169 15.2904C12.5892 16.9778 13.3391 18.5884 14.6343 19.8376C15.9294 21.0869 17.6863 21.8942 19.5945 22.117C21.5026 22.3398 23.4391 21.9637 25.0617 21.0552L27.5658 23.471C25.3558 24.2148 23.007 24.5905 20.64 24.579ZM21.66 10.3482C21.3056 10.2889 20.9926 10.1085 20.7898 9.84671C20.5871 9.58495 20.5111 9.26326 20.5788 8.9524C20.6464 8.64153 20.852 8.36697 21.1505 8.18911C21.4489 8.01124 21.8156 7.94465 22.17 8.00397C23.9033 8.29874 25.4816 9.07714 26.6693 10.2231C27.8571 11.369 28.5908 12.821 28.7609 14.3626C28.7945 14.6776 28.684 14.9914 28.4538 15.235C28.2236 15.4786 27.8926 15.632 27.5335 15.6614C27.491 15.6636 27.4484 15.6636 27.406 15.6614C27.0661 15.6627 26.7379 15.5523 26.4862 15.3519C26.2345 15.1515 26.0774 14.8757 26.046 14.5788C25.9315 13.5534 25.4428 12.5878 24.6526 11.8256C23.8624 11.0634 22.8128 10.5452 21.66 10.3482ZM40.9176 15.5213C40.8462 15.6614 39.1241 19.0063 35.2464 22.0528C35.1139 22.1602 34.9583 22.2435 34.7888 22.2976C34.6193 22.3518 34.4392 22.3758 34.259 22.3684C34.0788 22.3609 33.902 22.322 33.7391 22.254C33.5762 22.186 33.4303 22.0903 33.31 21.9724C33.1897 21.8545 33.0973 21.7167 33.0382 21.5672C32.9792 21.4176 32.9546 21.2593 32.966 21.1013C32.9774 20.9434 33.0245 20.789 33.1046 20.6472C33.1847 20.5054 33.2962 20.379 33.4325 20.2753C35.3349 18.776 36.9329 17.0041 38.1585 15.0351C37.1086 13.3467 35.7846 11.8011 34.2281 10.4466C30.4439 7.15994 25.8726 5.49126 20.64 5.49126C19.5374 5.49008 18.4367 5.56838 17.3488 5.72538C17.1719 5.75282 16.9905 5.74925 16.8152 5.71486C16.6398 5.68047 16.474 5.61595 16.3273 5.52502C16.1805 5.4341 16.0558 5.31857 15.9602 5.18511C15.8647 5.05165 15.8002 4.90291 15.7706 4.74747C15.7409 4.59204 15.7467 4.43299 15.7875 4.27952C15.8283 4.12605 15.9034 3.98119 16.0084 3.85332C16.1135 3.72545 16.2463 3.6171 16.3993 3.53452C16.5524 3.45194 16.7225 3.39678 16.9 3.37222C18.1362 3.19317 19.3871 3.1039 20.64 3.10529C26.5696 3.10529 31.9569 5.08266 36.2222 8.82415C39.4233 11.6321 40.8632 14.4341 40.9227 14.552C41 14.7045 41.04 14.8696 41.04 15.0366C41.04 15.2036 41 15.3687 40.9227 15.5213H40.9176Z" fill="black"/>
</svg>
