<svg width="32" height="29" viewBox="0 0 32 29" fill="none" xmlns="http://www.w3.org/2000/svg">
<path d="M31.8186 26.4505C29.4778 22.7614 25.8705 20.1161 21.6607 18.862C23.743 17.732 25.3609 16.01 26.2658 13.9606C27.1707 11.9112 27.3126 9.6477 26.6698 7.51765C26.0269 5.38759 24.6349 3.5088 22.7073 2.16979C20.7798 0.830779 18.4234 0.105591 16 0.105591C13.5766 0.105591 11.2202 0.830779 9.29267 2.16979C7.36513 3.5088 5.97305 5.38759 5.33021 7.51765C4.68736 9.6477 4.82929 11.9112 5.7342 13.9606C6.63911 16.01 8.25696 17.732 10.3393 18.862C6.12953 20.1147 2.52224 22.76 0.181419 26.4505C0.0955774 26.5781 0.0386391 26.7201 0.0139637 26.8681C-0.0107116 27.0161 -0.00262404 27.1671 0.0377492 27.3122C0.0781224 27.4572 0.149964 27.5935 0.249034 27.7129C0.348104 27.8322 0.472397 27.9323 0.614578 28.0072C0.75676 28.082 0.91395 28.1302 1.07687 28.1488C1.2398 28.1674 1.40516 28.156 1.5632 28.1154C1.72123 28.0748 1.86875 28.0057 1.99703 27.9123C2.12532 27.8189 2.23178 27.703 2.31013 27.5714C5.2058 23.0094 10.3239 20.2856 16 20.2856C21.6761 20.2856 26.7942 23.0094 29.6899 27.5714C29.7682 27.703 29.8747 27.8189 30.003 27.9123C30.1313 28.0057 30.2788 28.0748 30.4368 28.1154C30.5948 28.156 30.7602 28.1674 30.9231 28.1488C31.0861 28.1302 31.2432 28.082 31.3854 28.0072C31.5276 27.9323 31.6519 27.8322 31.751 27.7129C31.85 27.5935 31.9219 27.4572 31.9622 27.3122C32.0026 27.1671 32.0107 27.0161 31.986 26.8681C31.9614 26.7201 31.9044 26.5781 31.8186 26.4505ZM7.39292 10.1975C7.39292 8.64565 7.89772 7.12865 8.84348 5.83833C9.78923 4.54801 11.1335 3.54233 12.7062 2.94846C14.279 2.3546 16.0096 2.19921 17.6792 2.50197C19.3488 2.80472 20.8824 3.552 22.0861 4.64933C23.2898 5.74665 24.1096 7.14473 24.4417 8.66676C24.7738 10.1888 24.6034 11.7664 23.9519 13.2001C23.3005 14.6339 22.1973 15.8593 20.7818 16.7215C19.3664 17.5836 17.7023 18.0438 16 18.0438C13.718 18.0416 11.5302 17.2142 9.91657 15.7432C8.30296 14.2722 7.39536 12.2778 7.39292 10.1975Z" fill="black"/>
</svg>
