<svg width="39" height="62" viewBox="0 0 39 62" fill="none" xmlns="http://www.w3.org/2000/svg">
<g filter="url(#filter0_d_51_8)">
<path d="M34.2424 28.6216L8.41199 52.6105C8.17199 52.8334 7.88708 53.0102 7.57352 53.1308C7.25996 53.2515 6.92388 53.3136 6.58448 53.3136C6.24508 53.3136 5.90901 53.2515 5.59544 53.1308C5.28188 53.0102 4.99697 52.8334 4.75698 52.6105C4.51698 52.3877 4.32661 52.1231 4.19673 51.8319C4.06685 51.5406 4 51.2285 4 50.9133C4 50.5981 4.06685 50.286 4.19673 49.9948C4.32661 49.7036 4.51698 49.439 4.75698 49.2161L28.7631 26.9244L4.75698 4.63272C4.27229 4.18259 4 3.57208 4 2.9355C4 2.29892 4.27229 1.68842 4.75698 1.23829C5.24166 0.788158 5.89903 0.535278 6.58448 0.535278C7.26993 0.535278 7.9273 0.788158 8.41199 1.23829L34.2424 25.2272C34.4826 25.45 34.6731 25.7146 34.8031 26.0058C34.9331 26.297 35 26.6092 35 26.9244C35 27.2397 34.9331 27.5518 34.8031 27.843C34.6731 28.1343 34.4826 28.3988 34.2424 28.6216Z" fill="black"/>
</g>
<defs>
<filter id="filter0_d_51_8" x="0" y="0.535278" width="39" height="60.7783" filterUnits="userSpaceOnUse" color-interpolation-filters="sRGB">
<feFlood flood-opacity="0" result="BackgroundImageFix"/>
<feColorMatrix in="SourceAlpha" type="matrix" values="0 0 0 0 0 0 0 0 0 0 0 0 0 0 0 0 0 0 127 0" result="hardAlpha"/>
<feOffset dy="4"/>
<feGaussianBlur stdDeviation="2"/>
<feComposite in2="hardAlpha" operator="out"/>
<feColorMatrix type="matrix" values="0 0 0 0 0 0 0 0 0 0 0 0 0 0 0 0 0 0 0.5 0"/>
<feBlend mode="normal" in2="BackgroundImageFix" result="effect1_dropShadow_51_8"/>
<feBlend mode="normal" in="SourceGraphic" in2="effect1_dropShadow_51_8" result="shape"/>
</filter>
</defs>
</svg>
